<svg xmlns="http://www.w3.org/2000/svg" xmlns:xlink="http://www.w3.org/1999/xlink" width="500" zoomAndPan="magnify" viewBox="0 0 375 374.999991" height="500" preserveAspectRatio="xMidYMid meet" version="1.2"><defs><clipPath id="e9794e73cf"><path d="M 64.957031 179.582031 L 297.882812 179.582031 L 297.882812 210.097656 L 64.957031 210.097656 Z M 64.957031 179.582031 "/></clipPath><clipPath id="ffc2d57cd9"><path d="M 80.214844 179.582031 L 282.578125 179.582031 C 286.625 179.582031 290.507812 181.191406 293.367188 184.050781 C 296.230469 186.914062 297.835938 190.792969 297.835938 194.839844 C 297.835938 198.886719 296.230469 202.769531 293.367188 205.628906 C 290.507812 208.492188 286.625 210.097656 282.578125 210.097656 L 80.214844 210.097656 C 76.171875 210.097656 72.289062 208.492188 69.425781 205.628906 C 66.566406 202.769531 64.957031 198.886719 64.957031 194.839844 C 64.957031 190.792969 66.566406 186.914062 69.425781 184.050781 C 72.289062 181.191406 76.171875 179.582031 80.214844 179.582031 Z M 80.214844 179.582031 "/></clipPath></defs><g id="da0c36ca57"><g style="fill:#cdb4db;fill-opacity:1;"><g transform="translate(164.626012, 253.740235)"><path style="stroke:none" d="M 103.984375 -102.203125 C 103.984375 -107.085938 102.859375 -111.476562 100.609375 -115.375 C 98.367188 -119.269531 95.367188 -122.503906 91.609375 -125.078125 C 87.847656 -127.660156 83.523438 -129.644531 78.640625 -131.03125 C 73.753906 -132.414062 68.671875 -133.109375 63.390625 -133.109375 L 5.75 -133.109375 L 5.75 -129.9375 L 22.78125 -129.9375 L 22.78125 -3.171875 L 5.75 -3.171875 L 5.75 0 L 64.96875 0 C 78.695312 0 89.359375 -3.164062 96.953125 -9.5 C 104.546875 -15.84375 108.34375 -24.628906 108.34375 -35.859375 C 108.34375 -41.660156 107.1875 -46.738281 104.875 -51.09375 C 102.570312 -55.457031 99.703125 -59.15625 96.265625 -62.1875 C 92.828125 -65.226562 89.03125 -67.570312 84.875 -69.21875 C 80.71875 -70.875 76.851562 -71.898438 73.28125 -72.296875 C 77.644531 -73.085938 81.707031 -74.242188 85.46875 -75.765625 C 89.226562 -77.285156 92.460938 -79.265625 95.171875 -81.703125 C 97.878906 -84.148438 100.023438 -87.054688 101.609375 -90.421875 C 103.191406 -93.785156 103.984375 -97.710938 103.984375 -102.203125 Z M 42 -73.484375 L 42 -129.9375 L 63.390625 -129.9375 C 66.691406 -129.9375 69.660156 -129.503906 72.296875 -128.640625 C 74.941406 -127.785156 77.1875 -126.332031 79.03125 -124.28125 C 80.882812 -122.238281 82.335938 -119.535156 83.390625 -116.171875 C 84.441406 -112.804688 84.96875 -108.679688 84.96875 -103.796875 L 84.96875 -100.625 C 84.96875 -95.34375 84.441406 -90.953125 83.390625 -87.453125 C 82.335938 -83.953125 80.882812 -81.175781 79.03125 -79.125 C 77.1875 -77.082031 74.910156 -75.628906 72.203125 -74.765625 C 69.492188 -73.910156 66.554688 -73.484375 63.390625 -73.484375 Z M 42 -3.171875 L 42 -70.3125 L 63.390625 -70.3125 C 72.492188 -70.3125 78.992188 -67.535156 82.890625 -61.984375 C 86.785156 -56.441406 88.734375 -48.523438 88.734375 -38.234375 L 88.734375 -33.46875 C 88.734375 -23.832031 86.882812 -16.375 83.1875 -11.09375 C 79.488281 -5.8125 72.890625 -3.171875 63.390625 -3.171875 Z M 42 -3.171875 "/></g></g><g style="fill:#cdb4db;fill-opacity:1;"><g transform="translate(69.024322, 245.415814)"><path style="stroke:none" d="M 60.609375 -133.109375 L 5.75 -133.109375 L 5.75 -129.9375 L 22.78125 -129.9375 L 22.78125 -3.171875 L 5.75 -3.171875 L 5.75 0 L 59.03125 0 L 59.03125 -3.171875 L 42 -3.171875 L 42 -61.203125 L 62.59375 -61.203125 C 68.40625 -61.203125 73.71875 -62.0625 78.53125 -63.78125 C 83.351562 -65.5 87.476562 -67.941406 90.90625 -71.109375 C 94.34375 -74.273438 97.019531 -78.070312 98.9375 -82.5 C 100.851562 -86.925781 101.8125 -91.84375 101.8125 -97.25 C 101.8125 -102.53125 100.851562 -107.382812 98.9375 -111.8125 C 97.019531 -116.238281 94.28125 -120.035156 90.71875 -123.203125 C 87.15625 -126.367188 82.832031 -128.8125 77.75 -130.53125 C 72.664062 -132.25 66.953125 -133.109375 60.609375 -133.109375 Z M 42 -64.375 L 42 -129.9375 L 60.609375 -129.9375 C 68.003906 -129.9375 73.78125 -127.722656 77.9375 -123.296875 C 82.101562 -118.878906 84.1875 -111.390625 84.1875 -100.828125 L 84.1875 -93.6875 C 84.1875 -83.519531 82.140625 -76.09375 78.046875 -71.40625 C 73.953125 -66.71875 68.800781 -64.375 62.59375 -64.375 Z M 42 -64.375 "/></g></g><g clip-rule="nonzero" clip-path="url(#e9794e73cf)"><g clip-rule="nonzero" clip-path="url(#ffc2d57cd9)"><path style=" stroke:none;fill-rule:nonzero;fill:#d9d9d9;fill-opacity:1;" d="M 64.957031 179.582031 L 297.882812 179.582031 L 297.882812 210.097656 L 64.957031 210.097656 Z M 64.957031 179.582031 "/></g></g><g style="fill:#3d405b;fill-opacity:1;"><g transform="translate(123.356335, 198.965013)"><path style="stroke:none" d="M 5.1875 -9.421875 C 6.019531 -9.421875 6.742188 -9.28125 7.359375 -9 C 7.972656 -8.71875 8.445312 -8.320312 8.78125 -7.8125 C 9.113281 -7.300781 9.28125 -6.695312 9.28125 -6 C 9.28125 -5.3125 9.113281 -4.707031 8.78125 -4.1875 C 8.445312 -3.675781 7.972656 -3.28125 7.359375 -3 C 6.742188 -2.726562 6.019531 -2.59375 5.1875 -2.59375 L 3.296875 -2.59375 L 3.296875 0 L 1.109375 0 L 1.109375 -9.421875 Z M 5.078125 -4.375 C 5.722656 -4.375 6.21875 -4.515625 6.5625 -4.796875 C 6.90625 -5.078125 7.078125 -5.476562 7.078125 -6 C 7.078125 -6.53125 6.90625 -6.9375 6.5625 -7.21875 C 6.21875 -7.5 5.722656 -7.640625 5.078125 -7.640625 L 3.296875 -7.640625 L 3.296875 -4.375 Z M 5.078125 -4.375 "/></g></g><g style="fill:#3d405b;fill-opacity:1;"><g transform="translate(137.848376, 198.965013)"><path style="stroke:none" d="M 7.109375 0 L 5.296875 -2.625 L 3.296875 -2.625 L 3.296875 0 L 1.109375 0 L 1.109375 -9.421875 L 5.1875 -9.421875 C 6.019531 -9.421875 6.742188 -9.28125 7.359375 -9 C 7.972656 -8.71875 8.445312 -8.320312 8.78125 -7.8125 C 9.113281 -7.300781 9.28125 -6.695312 9.28125 -6 C 9.28125 -5.300781 9.113281 -4.695312 8.78125 -4.1875 C 8.445312 -3.6875 7.96875 -3.300781 7.34375 -3.03125 L 9.453125 0 Z M 7.078125 -6 C 7.078125 -6.53125 6.90625 -6.9375 6.5625 -7.21875 C 6.21875 -7.5 5.722656 -7.640625 5.078125 -7.640625 L 3.296875 -7.640625 L 3.296875 -4.359375 L 5.078125 -4.359375 C 5.722656 -4.359375 6.21875 -4.5 6.5625 -4.78125 C 6.90625 -5.070312 7.078125 -5.476562 7.078125 -6 Z M 7.078125 -6 "/></g></g><g style="fill:#3d405b;fill-opacity:1;"><g transform="translate(152.380736, 198.965013)"><path style="stroke:none" d="M 1.109375 -9.421875 L 3.296875 -9.421875 L 3.296875 0 L 1.109375 0 Z M 1.109375 -9.421875 "/></g></g><g style="fill:#3d405b;fill-opacity:1;"><g transform="translate(161.44243, 198.965013)"><path style="stroke:none" d="M 9.75 -9.421875 L 9.75 0 L 7.96875 0 L 3.265625 -5.71875 L 3.265625 0 L 1.109375 0 L 1.109375 -9.421875 L 2.921875 -9.421875 L 7.59375 -3.703125 L 7.59375 -9.421875 Z M 9.75 -9.421875 "/></g></g><g style="fill:#3d405b;fill-opacity:1;"><g transform="translate(176.956017, 198.965013)"><path style="stroke:none" d="M 3.0625 -7.640625 L 0.046875 -7.640625 L 0.046875 -9.421875 L 8.265625 -9.421875 L 8.265625 -7.640625 L 5.25 -7.640625 L 5.25 0 L 3.0625 0 Z M 3.0625 -7.640625 "/></g></g><g style="fill:#3d405b;fill-opacity:1;"><g transform="translate(189.915729, 198.965013)"><path style="stroke:none" d="M 8.40625 -1.75 L 8.40625 0 L 1.109375 0 L 1.109375 -9.421875 L 8.234375 -9.421875 L 8.234375 -7.671875 L 3.28125 -7.671875 L 3.28125 -5.625 L 7.65625 -5.625 L 7.65625 -3.921875 L 3.28125 -3.921875 L 3.28125 -1.75 Z M 8.40625 -1.75 "/></g></g><g style="fill:#3d405b;fill-opacity:1;"><g transform="translate(203.587836, 198.965013)"><path style="stroke:none" d="M 1.109375 -9.421875 L 3.296875 -9.421875 L 3.296875 -1.78125 L 8.015625 -1.78125 L 8.015625 0 L 1.109375 0 Z M 1.109375 -9.421875 "/></g></g><g style="fill:#3d405b;fill-opacity:1;"><g transform="translate(216.359373, 198.965013)"><path style="stroke:none" d="M 1.109375 -9.421875 L 3.296875 -9.421875 L 3.296875 -1.78125 L 8.015625 -1.78125 L 8.015625 0 L 1.109375 0 Z M 1.109375 -9.421875 "/></g></g><g style="fill:#3d405b;fill-opacity:1;"><g transform="translate(229.13091, 198.965013)"><path style="stroke:none" d="M 7.3125 -2.015625 L 2.953125 -2.015625 L 2.109375 0 L -0.125 0 L 4.078125 -9.421875 L 6.234375 -9.421875 L 10.4375 0 L 8.15625 0 Z M 6.625 -3.671875 L 5.140625 -7.28125 L 3.640625 -3.671875 Z M 6.625 -3.671875 "/></g></g><g style="fill:#cdb4db;fill-opacity:1;"><g transform="translate(150.850338, 265.21944)"><path style="stroke:none" d="M 3.546875 0.046875 C 2.953125 0.046875 2.421875 -0.0820312 1.953125 -0.34375 C 1.484375 -0.601562 1.113281 -0.960938 0.84375 -1.421875 C 0.570312 -1.878906 0.4375 -2.394531 0.4375 -2.96875 C 0.4375 -3.53125 0.570312 -4.039062 0.84375 -4.5 C 1.113281 -4.96875 1.484375 -5.332031 1.953125 -5.59375 C 2.429688 -5.851562 2.960938 -5.984375 3.546875 -5.984375 C 3.984375 -5.984375 4.390625 -5.90625 4.765625 -5.75 C 5.140625 -5.601562 5.457031 -5.390625 5.71875 -5.109375 L 5.3125 -4.71875 C 4.851562 -5.1875 4.269531 -5.421875 3.5625 -5.421875 C 3.09375 -5.421875 2.664062 -5.3125 2.28125 -5.09375 C 1.894531 -4.882812 1.59375 -4.59375 1.375 -4.21875 C 1.164062 -3.84375 1.0625 -3.425781 1.0625 -2.96875 C 1.0625 -2.5 1.164062 -2.078125 1.375 -1.703125 C 1.59375 -1.335938 1.894531 -1.046875 2.28125 -0.828125 C 2.664062 -0.617188 3.09375 -0.515625 3.5625 -0.515625 C 4.269531 -0.515625 4.851562 -0.75 5.3125 -1.21875 L 5.71875 -0.828125 C 5.457031 -0.535156 5.140625 -0.316406 4.765625 -0.171875 C 4.390625 -0.0234375 3.984375 0.046875 3.546875 0.046875 Z M 3.546875 0.046875 "/></g></g><g style="fill:#cdb4db;fill-opacity:1;"><g transform="translate(162.844321, 265.21944)"><path style="stroke:none" d="M 5.015625 0 L 3.65625 -1.90625 C 3.507812 -1.882812 3.351562 -1.875 3.1875 -1.875 L 1.59375 -1.875 L 1.59375 0 L 0.96875 0 L 0.96875 -5.921875 L 3.1875 -5.921875 C 3.9375 -5.921875 4.523438 -5.738281 4.953125 -5.375 C 5.390625 -5.019531 5.609375 -4.523438 5.609375 -3.890625 C 5.609375 -3.429688 5.488281 -3.039062 5.25 -2.71875 C 5.019531 -2.40625 4.6875 -2.175781 4.25 -2.03125 L 5.703125 0 Z M 3.171875 -2.40625 C 3.753906 -2.40625 4.203125 -2.535156 4.515625 -2.796875 C 4.828125 -3.054688 4.984375 -3.421875 4.984375 -3.890625 C 4.984375 -4.367188 4.828125 -4.738281 4.515625 -5 C 4.203125 -5.257812 3.753906 -5.390625 3.171875 -5.390625 L 1.59375 -5.390625 L 1.59375 -2.40625 Z M 3.171875 -2.40625 "/></g></g><g style="fill:#cdb4db;fill-opacity:1;"><g transform="translate(174.872178, 265.21944)"><path style="stroke:none" d="M 5.15625 -0.546875 L 5.15625 0 L 0.96875 0 L 0.96875 -5.921875 L 5.03125 -5.921875 L 5.03125 -5.390625 L 1.59375 -5.390625 L 1.59375 -3.28125 L 4.65625 -3.28125 L 4.65625 -2.75 L 1.59375 -2.75 L 1.59375 -0.546875 Z M 5.15625 -0.546875 "/></g></g><g style="fill:#cdb4db;fill-opacity:1;"><g transform="translate(186.442642, 265.21944)"><path style="stroke:none" d="M 4.6875 -1.578125 L 1.375 -1.578125 L 0.671875 0 L 0.015625 0 L 2.734375 -5.921875 L 3.34375 -5.921875 L 6.0625 0 L 5.390625 0 Z M 4.453125 -2.09375 L 3.03125 -5.28125 L 1.609375 -2.09375 Z M 4.453125 -2.09375 "/></g></g><g style="fill:#cdb4db;fill-opacity:1;"><g transform="translate(198.419684, 265.21944)"><path style="stroke:none" d="M 2.125 -5.390625 L 0.03125 -5.390625 L 0.03125 -5.921875 L 4.828125 -5.921875 L 4.828125 -5.390625 L 2.75 -5.390625 L 2.75 0 L 2.125 0 Z M 2.125 -5.390625 "/></g></g><g style="fill:#cdb4db;fill-opacity:1;"><g transform="translate(209.18546, 265.21944)"><path style="stroke:none" d="M 0.96875 -5.921875 L 1.59375 -5.921875 L 1.59375 0 L 0.96875 0 Z M 0.96875 -5.921875 "/></g></g><g style="fill:#cdb4db;fill-opacity:1;"><g transform="translate(217.6473, 265.21944)"><path style="stroke:none" d="M 5.890625 -5.921875 L 3.265625 0 L 2.65625 0 L 0.03125 -5.921875 L 0.703125 -5.921875 L 2.96875 -0.78125 L 5.265625 -5.921875 Z M 5.890625 -5.921875 "/></g></g><g style="fill:#cdb4db;fill-opacity:1;"><g transform="translate(229.463398, 265.21944)"><path style="stroke:none" d="M 0.96875 -5.921875 L 1.59375 -5.921875 L 1.59375 0 L 0.96875 0 Z M 0.96875 -5.921875 "/></g></g><g style="fill:#cdb4db;fill-opacity:1;"><g transform="translate(237.925238, 265.21944)"><path style="stroke:none" d="M 2.125 -5.390625 L 0.03125 -5.390625 L 0.03125 -5.921875 L 4.828125 -5.921875 L 4.828125 -5.390625 L 2.75 -5.390625 L 2.75 0 L 2.125 0 Z M 2.125 -5.390625 "/></g></g><g style="fill:#cdb4db;fill-opacity:1;"><g transform="translate(248.691014, 265.21944)"><path style="stroke:none" d="M 3 -2.046875 L 3 0 L 2.375 0 L 2.375 -2.046875 L 0.015625 -5.921875 L 0.671875 -5.921875 L 2.703125 -2.59375 L 4.75 -5.921875 L 5.375 -5.921875 Z M 3 -2.046875 "/></g></g></g></svg>